<?xml version="1.0" encoding="utf-8"?>
<!-- Generator: Adobe Illustrator 23.0.6, SVG Export Plug-In . SVG Version: 6.00 Build 0)  -->
<svg version="1.1" id="Layer_1" xmlns="http://www.w3.org/2000/svg" xmlns:xlink="http://www.w3.org/1999/xlink" x="0px" y="0px"
	 viewBox="0 0 370 53" style="enable-background:new 0 0 370 53;" xml:space="preserve">
<g>
	<path d="M24.3,43.19c-0.29,1.25-0.7,2.32-1.22,3.2c-0.53,0.89-1.12,1.66-1.76,2.3c-0.65,0.65-1.34,1.18-2.09,1.58
		c-0.74,0.41-1.45,0.73-2.12,0.97c-0.58,0.24-1.1,0.41-1.58,0.5c-0.48,0.1-0.91,0.17-1.3,0.22c-0.43,0.05-0.84,0.07-1.22,0.07H0.18
		L11.92,0.71h12.82c0.62,0,1.22,0.07,1.8,0.22c0.53,0.1,1.09,0.26,1.69,0.5c0.6,0.24,1.16,0.55,1.69,0.94
		c0.86,0.62,1.54,1.51,2.02,2.66c0.48,1.15,0.5,2.69,0.07,4.61L24.3,43.19z M11.49,43.19h1.94c0.29,0,0.55-0.1,0.79-0.29
		c0.24-0.14,0.48-0.33,0.72-0.58c0.24-0.24,0.43-0.62,0.58-1.15l6.62-29.23c0.14-0.58,0.17-1.02,0.07-1.33
		c-0.1-0.31-0.24-0.54-0.43-0.68c-0.19-0.19-0.43-0.29-0.72-0.29h-1.94L11.49,43.19z"/>
	<path d="M37.62,0.71h12.82c0.62-0.05,1.22,0,1.8,0.14c0.53,0.1,1.09,0.26,1.69,0.5c0.6,0.24,1.19,0.55,1.76,0.94
		c0.82,0.62,1.46,1.51,1.94,2.66c0.48,1.15,0.5,2.69,0.07,4.61l-2.81,12.1c-0.19,1.01-0.53,1.94-1.01,2.81
		c-0.14,0.34-0.3,0.64-0.47,0.9c-0.17,0.26-0.35,0.52-0.54,0.76c-0.48,0.62-1,1.16-1.55,1.62c-0.55,0.46-1.12,0.85-1.69,1.19
		c0.1,0.1,0.17,0.16,0.22,0.18c0.05,0.03,0.12,0.08,0.22,0.18c0.72,0.67,1.26,1.56,1.62,2.66c0.36,1.1,0.35,2.5-0.04,4.18
		l-3.6,15.91h-9.29l3.89-17.42c0.14-0.58,0.17-1.02,0.07-1.33c-0.1-0.31-0.24-0.54-0.43-0.68c-0.19-0.19-0.43-0.29-0.72-0.29h-1.94
		l-4.46,19.73h-9.29L37.62,0.71z M42.08,21.66h1.87c0.29,0,0.55-0.07,0.79-0.22c0.24-0.1,0.48-0.26,0.72-0.5
		c0.24-0.24,0.43-0.58,0.58-1.01c0-0.05,0.1-0.48,0.29-1.3c0.19-0.82,0.4-1.72,0.61-2.7c0.22-0.98,0.43-1.88,0.65-2.7
		c0.22-0.82,0.32-1.25,0.32-1.3c0.19-1.06,0.07-1.75-0.36-2.09c-0.19-0.19-0.46-0.29-0.79-0.29h-1.94L42.08,21.66z"/>
	<path d="M75.64,43.12c-0.29,1.25-0.7,2.33-1.22,3.24c-0.53,0.91-1.13,1.69-1.8,2.34c-0.67,0.65-1.38,1.18-2.12,1.58
		c-0.74,0.41-1.45,0.73-2.12,0.97c-0.58,0.24-1.1,0.41-1.58,0.5c-0.48,0.1-0.91,0.17-1.3,0.22c-0.43,0.05-0.84,0.07-1.22,0.07h-3.53
		c-0.62,0-1.22-0.07-1.8-0.22c-0.53-0.1-1.1-0.25-1.73-0.47c-0.62-0.22-1.2-0.54-1.73-0.97c-0.82-0.62-1.46-1.51-1.94-2.66
		c-0.48-1.15-0.5-2.69-0.07-4.61l7.63-33.48V9.56c0.05-0.05,0.18-0.42,0.4-1.12c0.22-0.69,0.6-1.48,1.15-2.34
		c0.55-0.86,1.28-1.74,2.2-2.63c0.91-0.89,2.09-1.6,3.53-2.12c1.15-0.43,2.5-0.65,4.03-0.65H76c0.62,0,1.22,0.07,1.8,0.22
		c0.53,0.1,1.09,0.26,1.69,0.5c0.6,0.24,1.16,0.55,1.69,0.94c0.86,0.62,1.54,1.5,2.02,2.63c0.48,1.13,0.5,2.68,0.07,4.64
		L75.64,43.12z M63.25,40.96c0,0.1-0.01,0.25-0.04,0.47c-0.02,0.22-0.01,0.46,0.04,0.72c0.05,0.26,0.17,0.49,0.36,0.68
		c0.19,0.19,0.5,0.29,0.94,0.29s0.78-0.09,1.04-0.29c0.26-0.19,0.49-0.42,0.68-0.68c0.19-0.26,0.34-0.5,0.43-0.72
		c0.1-0.22,0.14-0.37,0.14-0.47l6.55-29.02c0.14-0.58,0.17-1.02,0.07-1.33c-0.1-0.31-0.24-0.54-0.43-0.68
		c-0.19-0.14-0.48-0.24-0.86-0.29c-0.38,0-0.72,0.1-1.01,0.29c-0.29,0.19-0.52,0.42-0.68,0.68c-0.17,0.26-0.3,0.52-0.4,0.76
		c-0.1,0.24-0.17,0.41-0.22,0.5v0.07L63.25,40.96z"/>
	<path d="M91.04,37.5l-3.31,14.54h-9.22L90.03,0.71h12.89c0.58-0.05,1.15,0,1.73,0.14c0.53,0.1,1.09,0.26,1.69,0.5
		c0.6,0.24,1.19,0.55,1.76,0.94c0.82,0.62,1.46,1.48,1.94,2.56c0.48,1.08,0.53,2.53,0.14,4.36l-4.32,19.37
		c-0.34,1.49-0.84,2.74-1.51,3.74c-0.67,1.01-1.43,1.85-2.27,2.52c-0.84,0.67-1.7,1.19-2.59,1.55c-0.89,0.36-1.69,0.62-2.41,0.79
		c-0.72,0.17-1.56,0.28-2.52,0.32H91.04z M100.4,11.72c0.1-0.53,0.1-0.94,0-1.22c-0.1-0.29-0.24-0.5-0.43-0.65
		c-0.19-0.19-0.43-0.29-0.72-0.29h-1.94l-4.25,19.01h1.87c0.34,0,0.62-0.09,0.86-0.29c0.24-0.1,0.47-0.28,0.68-0.54
		c0.22-0.26,0.4-0.64,0.54-1.12L100.4,11.72z"/>
	<path d="M116.67,37.5l-3.31,14.54h-9.22l11.52-51.34h12.89c0.58-0.05,1.15,0,1.73,0.14c0.53,0.1,1.09,0.26,1.69,0.5
		c0.6,0.24,1.19,0.55,1.76,0.94c0.82,0.62,1.46,1.48,1.94,2.56c0.48,1.08,0.53,2.53,0.14,4.36l-4.32,19.37
		c-0.34,1.49-0.84,2.74-1.51,3.74c-0.67,1.01-1.43,1.85-2.27,2.52c-0.84,0.67-1.7,1.19-2.59,1.55c-0.89,0.36-1.69,0.62-2.41,0.79
		c-0.72,0.17-1.56,0.28-2.52,0.32H116.67z M126.03,11.72c0.1-0.53,0.1-0.94,0-1.22c-0.1-0.29-0.24-0.5-0.43-0.65
		c-0.19-0.19-0.43-0.29-0.72-0.29h-1.94l-4.25,19.01h1.87c0.34,0,0.62-0.09,0.86-0.29c0.24-0.1,0.47-0.28,0.68-0.54
		c0.22-0.26,0.4-0.64,0.54-1.12L126.03,11.72z"/>
	<path d="M159.94,9.64h-11.23l-2.74,12.1h11.16l-2.02,8.93h-11.16l-2.88,12.53h11.23l-2.09,8.93l-20.45-0.07l11.74-51.34h20.45
		L159.94,9.64z"/>
	<path d="M178.74,43.19c-0.29,1.25-0.7,2.32-1.22,3.2c-0.53,0.89-1.12,1.66-1.76,2.3c-0.65,0.65-1.34,1.18-2.09,1.58
		c-0.74,0.41-1.45,0.73-2.12,0.97c-0.58,0.24-1.1,0.41-1.58,0.5c-0.48,0.1-0.91,0.17-1.3,0.22c-0.43,0.05-0.84,0.07-1.22,0.07
		h-12.82l11.74-51.34h12.82c0.62,0,1.22,0.07,1.8,0.22c0.53,0.1,1.09,0.26,1.69,0.5c0.6,0.24,1.16,0.55,1.69,0.94
		c0.86,0.62,1.54,1.51,2.02,2.66c0.48,1.15,0.5,2.69,0.07,4.61L178.74,43.19z M165.92,43.19h1.94c0.29,0,0.55-0.1,0.79-0.29
		c0.24-0.14,0.48-0.33,0.72-0.58c0.24-0.24,0.43-0.62,0.58-1.15l6.62-29.23c0.14-0.58,0.17-1.02,0.07-1.33
		c-0.1-0.31-0.24-0.54-0.43-0.68c-0.19-0.19-0.43-0.29-0.72-0.29h-1.94L165.92,43.19z"/>
	<path d="M210.56,40.96c0.1-0.29,0.22-1.06,0.36-2.3c0.1-0.67,0.14-1.4,0.14-2.2s-0.1-1.55-0.29-2.27c-0.1-0.38-0.26-0.89-0.5-1.51
		c-0.24-0.62-0.53-1.3-0.86-2.02v-0.07c-0.62-1.3-1.31-2.74-2.05-4.32c-0.75-1.58-1.38-3.12-1.91-4.61
		c-0.48-1.25-0.75-2.3-0.79-3.17c-0.24-1.58-0.31-3.07-0.22-4.46c0-0.38,0.01-0.76,0.04-1.12c0.02-0.36,0.06-0.71,0.11-1.04
		c0.14-1.3,0.26-2.04,0.36-2.23V9.56c0-0.1,0.12-0.48,0.36-1.15c0.24-0.67,0.62-1.45,1.15-2.34c0.53-0.89,1.26-1.77,2.2-2.66
		c0.94-0.89,2.1-1.57,3.49-2.05c1.2-0.43,2.54-0.65,4.03-0.65h3.6c0.58,0,1.15,0.07,1.73,0.22c0.53,0.1,1.09,0.25,1.69,0.47
		c0.6,0.22,1.19,0.52,1.76,0.9c0.82,0.67,1.46,1.57,1.94,2.7c0.48,1.13,0.5,2.65,0.07,4.57l-1.01,4.54h-9.29l0.5-2.23
		c0.14-0.58,0.16-1.02,0.04-1.33c-0.12-0.31-0.26-0.54-0.43-0.68c-0.17-0.14-0.45-0.24-0.83-0.29c-0.43,0-0.79,0.11-1.08,0.32
		c-0.29,0.22-0.52,0.46-0.68,0.72c-0.17,0.26-0.3,0.52-0.4,0.76c-0.1,0.24-0.14,0.41-0.14,0.5v0.07c-0.05,0.14-0.1,0.4-0.14,0.76
		c-0.05,0.36-0.1,0.83-0.14,1.4c-0.05,0.58-0.06,1.25-0.04,2.02c0.02,0.77,0.11,1.56,0.25,2.38c0.24,0.91,0.6,1.97,1.08,3.17
		c0.05,0.14,0.12,0.31,0.22,0.5c0.53,1.3,1.13,2.68,1.8,4.14c0.67,1.46,1.27,2.89,1.8,4.28c0.24,0.67,0.46,1.31,0.65,1.91
		c0.19,0.6,0.33,1.16,0.43,1.69c0.29,1.49,0.38,2.98,0.29,4.46c0,0.43-0.01,0.84-0.04,1.22c-0.03,0.38-0.06,0.74-0.11,1.08
		c-0.1,0.53-0.17,0.97-0.22,1.33c-0.05,0.36-0.1,0.61-0.14,0.76v0.07c-0.29,1.25-0.7,2.33-1.22,3.24c-0.53,0.91-1.13,1.69-1.8,2.34
		c-0.67,0.65-1.37,1.18-2.09,1.58c-0.72,0.41-1.44,0.73-2.16,0.97c-0.53,0.24-1.03,0.41-1.51,0.5c-0.48,0.1-0.91,0.17-1.3,0.22
		c-0.43,0.05-0.84,0.07-1.22,0.07h-3.53c-0.62,0-1.22-0.07-1.8-0.22c-0.53-0.1-1.09-0.25-1.69-0.47c-0.6-0.22-1.16-0.54-1.69-0.97
		c-0.82-0.62-1.46-1.51-1.94-2.66c-0.48-1.15-0.5-2.69-0.07-4.61l1.37-5.9h9.22l-0.36,1.44l-0.5,2.3c0,0.1-0.01,0.25-0.04,0.47
		c-0.02,0.22-0.01,0.46,0.04,0.72c0.05,0.26,0.17,0.49,0.36,0.68c0.19,0.19,0.5,0.29,0.94,0.29c0.43,0,0.78-0.09,1.04-0.29
		c0.26-0.19,0.48-0.42,0.65-0.68c0.17-0.26,0.3-0.5,0.4-0.72S210.56,41.05,210.56,40.96z"/>
	<path d="M244.33,43.12c-0.29,1.25-0.7,2.33-1.22,3.24c-0.53,0.91-1.13,1.69-1.8,2.34c-0.67,0.65-1.38,1.18-2.12,1.58
		c-0.75,0.41-1.45,0.73-2.12,0.97c-0.58,0.24-1.11,0.41-1.58,0.5c-0.48,0.1-0.91,0.17-1.3,0.22c-0.43,0.05-0.84,0.07-1.22,0.07
		h-3.53c-0.62,0-1.22-0.07-1.8-0.22c-0.53-0.1-1.1-0.25-1.73-0.47c-0.63-0.22-1.2-0.54-1.73-0.97c-0.82-0.62-1.46-1.51-1.94-2.66
		c-0.48-1.15-0.5-2.69-0.07-4.61l7.63-33.48V9.56c0.05-0.05,0.18-0.42,0.4-1.12c0.22-0.69,0.6-1.48,1.15-2.34
		c0.55-0.86,1.28-1.74,2.2-2.63c0.91-0.89,2.09-1.6,3.53-2.12c1.15-0.43,2.5-0.65,4.03-0.65h3.6c0.62,0,1.22,0.07,1.8,0.22
		c0.53,0.1,1.09,0.26,1.69,0.5c0.6,0.24,1.16,0.55,1.69,0.94c0.86,0.62,1.54,1.5,2.02,2.63c0.48,1.13,0.5,2.68,0.07,4.64
		L244.33,43.12z M231.94,40.96c0,0.1-0.01,0.25-0.04,0.47c-0.02,0.22-0.01,0.46,0.04,0.72c0.05,0.26,0.17,0.49,0.36,0.68
		c0.19,0.19,0.5,0.29,0.94,0.29s0.78-0.09,1.04-0.29c0.26-0.19,0.49-0.42,0.68-0.68c0.19-0.26,0.34-0.5,0.43-0.72
		c0.1-0.22,0.14-0.37,0.14-0.47l6.55-29.02c0.14-0.58,0.17-1.02,0.07-1.33c-0.1-0.31-0.24-0.54-0.43-0.68
		c-0.19-0.14-0.48-0.24-0.86-0.29c-0.38,0-0.72,0.1-1.01,0.29c-0.29,0.19-0.52,0.42-0.68,0.68c-0.17,0.26-0.3,0.52-0.4,0.76
		c-0.1,0.24-0.17,0.41-0.22,0.5v0.07L231.94,40.96z"/>
	<path d="M277.37,16.19l-9.29,0.07l1.01-4.32c0.14-0.58,0.16-1.02,0.04-1.33c-0.12-0.31-0.28-0.54-0.47-0.68
		c-0.19-0.14-0.48-0.24-0.86-0.29c-0.43,0-0.78,0.1-1.04,0.29c-0.26,0.19-0.49,0.42-0.68,0.68c-0.19,0.26-0.32,0.52-0.4,0.76
		c-0.07,0.24-0.13,0.41-0.18,0.5l-6.41,29.09v0.07c0,0.05-0.01,0.18-0.04,0.4c-0.03,0.22-0.01,0.46,0.04,0.72
		c0.05,0.26,0.17,0.49,0.36,0.68c0.19,0.19,0.5,0.29,0.94,0.29c0.43,0,0.78-0.09,1.04-0.29c0.26-0.19,0.48-0.42,0.65-0.68
		c0.17-0.26,0.3-0.5,0.4-0.72c0.1-0.22,0.14-0.37,0.14-0.47l1.08-4.61l9.22-0.07l-1.51,6.77c-0.29,1.25-0.68,2.33-1.19,3.24
		s-1.08,1.69-1.73,2.34c-0.65,0.65-1.34,1.18-2.09,1.58c-0.75,0.41-1.45,0.73-2.12,0.97c-0.58,0.24-1.1,0.4-1.58,0.47
		c-0.48,0.07-0.91,0.16-1.3,0.25c-0.43,0.1-0.82,0.14-1.15,0.14h-3.6c-0.58,0-1.15-0.07-1.73-0.22c-0.53-0.1-1.1-0.25-1.73-0.47
		c-0.62-0.22-1.2-0.54-1.73-0.97c-0.86-0.62-1.54-1.5-2.02-2.63c-0.48-1.13-0.5-2.65-0.07-4.57l7.42-33.48V9.64
		c0-0.05,0.11-0.42,0.32-1.12c0.22-0.7,0.6-1.48,1.15-2.34c0.55-0.86,1.28-1.74,2.2-2.63c0.91-0.89,2.06-1.6,3.46-2.12
		c0.62-0.24,1.26-0.42,1.91-0.54c0.65-0.12,1.38-0.18,2.2-0.18h3.53c0.62-0.05,1.22,0,1.8,0.14c0.53,0.1,1.09,0.26,1.69,0.5
		c0.6,0.24,1.19,0.55,1.76,0.94c0.82,0.62,1.46,1.5,1.94,2.63c0.48,1.13,0.5,2.68,0.07,4.64L277.37,16.19z"/>
	<path d="M282.2,52.04h-9.29l11.66-51.34h9.29L282.2,52.12V52.04z"/>
	<path d="M315.89,9.64h-11.23l-2.74,12.1h11.16l-2.02,8.93h-11.16l-2.88,12.53h11.23l-2.09,8.93l-20.45-0.07l11.74-51.34h20.45
		L315.89,9.64z"/>
	<path d="M317.98,0.71h27l-2.02,8.93h-8.5l-9.65,42.41h-9.29l9.65-42.41h-9.22L317.98,0.71z"/>
	<path d="M351.53,0.71l1.94,16.56l7.06-16.56h9.29l-14.4,33.55l-4.03,17.78h-9.29l4.1-17.78l-3.67-33.55H351.53z"/>
</g>
<g>
</g>
<g>
</g>
<g>
</g>
<g>
</g>
<g>
</g>
<g>
</g>
<g>
</g>
<g>
</g>
<g>
</g>
<g>
</g>
<g>
</g>
<g>
</g>
<g>
</g>
<g>
</g>
<g>
</g>
</svg>
